<svg xmlns="http://www.w3.org/2000/svg" style="position: absolute; width: 0; height: 0; overflow: hidden">
  <defs>
    <!-- Map Pin icon -->
    <symbol id="icon-location" viewBox="0 0 24 24">
      <path d="M12 21s7-7.2 7-12a7 7 0 1 0-14 0c0 4.8 7 12 7 12Z" />
      <circle cx="12" cy="9" r="2.5" />
    </symbol>

    <!-- Down arrow chevron icon -->
    <symbol id="icon-chevron-down" viewBox="0 0 24 24">
      <path d="M6 9l6 6 6-6" />
    </symbol>

    <!-- Search magnifying glass icon -->
    <symbol id="icon-search" viewBox="0 0 24 24">
      <circle cx="11" cy="11" r="7" />
      <path d="M21 21l-4.3-4.3" />
    </symbol>

    <!-- Wishlist heart icon -->
    <symbol id="icon-heart" viewBox="0 0 24 24">
      <path d="M12 20.5s-7.5-4.6-9.8-9.2C.6 7.8 2.4 4 6.2 4c2.1 0 3.6 1.2 4.5 2.6C11.5 5.2 13 4 15.1 4c3.8 0 5.6 3.8 4 7.3-2.3 4.6-9.8 9.2-9.8 9.2Z" />
    </symbol>

    <!-- Cart icon -->
    <symbol id="icon-cart" viewBox="0 0 24 24">
      <circle cx="9" cy="21" r="1.4" />
      <circle cx="18" cy="21" r="1.4" />
      <path d="M2 3h2l2.6 12.6a2 2 0 0 0 2 1.6h8.8a2 2 0 0 0 2-1.6L21 8H6" />
    </symbol>

    <!-- User Profile icon -->
    <symbol id="icon-user" viewBox="0 0 24 24">
      <circle cx="12" cy="8" r="4" />
      <path d="M4 21c1.5-4.5 5-6 8-6s6.5 1.5 8 6" />
    </symbol>

    <!-- Star rating icon -->
    <symbol id="icon-star" viewBox="0 0 24 24">
      <path d="M12 2.5l2.9 6 6.6.8-4.8 4.6 1.2 6.6L12 17.6l-5.9 3 1.2-6.6-4.8-4.6 6.6-.8Z" />
    </symbol>

    <!-- Mobile Hamburger menu icon -->
    <symbol id="icon-menu" viewBox="0 0 24 24">
      <path d="M3 6h18M3 12h18M3 18h18" />
    </symbol>

    <!-- Close button icon -->
    <symbol id="icon-close" viewBox="0 0 24 24">
      <path d="M6 6l12 12M18 6L6 18" />
    </symbol>

    <!-- Checkmark icon -->
    <symbol id="icon-check" viewBox="0 0 24 24">
      <path d="M5 13l4 4L19 7" />
    </symbol>

    <!-- Delivery Truck icon -->
    <symbol id="icon-truck" viewBox="0 0 24 24">
      <path d="M2 7h11v9H2z" />
      <path d="M13 10h4l4 3v3h-8z" />
      <circle cx="7" cy="18" r="1.6" />
      <circle cx="17.5" cy="18" r="1.6" />
    </symbol>

    <!-- Social Media: Instagram icon -->
    <symbol id="icon-instagram" viewBox="0 0 24 24">
      <rect x="3" y="3" width="18" height="18" rx="5" />
      <circle cx="12" cy="12" r="4" />
      <circle cx="17.3" cy="6.7" r="1" />
    </symbol>

    <!-- Social Media: Facebook icon -->
    <symbol id="icon-facebook" viewBox="0 0 24 24">
      <path d="M14 9h3V5h-3a4 4 0 0 0-4 4v2H7v4h3v6h4v-6h3l1-4h-4v-2c0-.6.4-1 1-1Z" />
    </symbol>

    <!-- Social Media: Twitter icon -->
    <symbol id="icon-twitter" viewBox="0 0 24 24">
      <path d="M21 5.5c-.8.4-1.6.6-2.5.8a4.3 4.3 0 0 0-7.3 3.9A12.2 12.2 0 0 1 2.5 4.9a4.3 4.3 0 0 0 1.3 5.7c-.7 0-1.4-.2-2-.5v.1a4.3 4.3 0 0 0 3.4 4.2c-.6.2-1.3.2-2 .1a4.3 4.3 0 0 0 4 3A8.6 8.6 0 0 1 1 19.5 12.2 12.2 0 0 0 7.6 21.5c7.9 0 12.3-6.6 12.3-12.3v-.6c.8-.6 1.6-1.4 2.1-2.3Z" />
    </symbol>

    <!-- Social Media: YouTube icon -->
    <symbol id="icon-youtube" viewBox="0 0 24 24">
      <rect x="2" y="5" width="20" height="14" rx="4" />
      <path d="M10 9l6 3-6 3Z" />
    </symbol>

    <!-- Back to top Right arrow icon -->
    <symbol id="icon-arrow-right" viewBox="0 0 24 24">
      <path d="M5 12h14M13 6l6 6-6 6" />
    </symbol>

    <!-- Contact mail envelope icon -->
    <symbol id="icon-mail" viewBox="0 0 24 24">
      <rect x="3" y="5" width="18" height="14" rx="2" />
      <path d="M4 6l8 7 8-7" />
    </symbol>

    <!-- Contact phone handset icon -->
    <symbol id="icon-phone" viewBox="0 0 24 24">
      <path d="M6 3h3l1.5 4-2 2a13 13 0 0 0 6.5 6.5l2-2 4 1.5v3a2 2 0 0 1-2.2 2C10.6 20.5 3.5 13.4 4 5.2A2 2 0 0 1 6 3Z" />
    </symbol>
  </defs>
</svg>
